<svg width="48" height="49" viewBox="0 0 48 49" fill="none" xmlns="http://www.w3.org/2000/svg">
<rect y="0.5" width="48" height="48" rx="8" fill="#FCAA88" fill-opacity="0.15"/>
<path d="M24.7242 12.8217C24.9442 12.4467 25.2992 12.17 25.7209 12.0583L25.7326 12.055C25.8692 12.0083 26.0259 11.9817 26.1909 11.9817C26.4859 11.9817 26.7593 12.07 26.9893 12.22L26.9843 12.2167C27.3493 12.4483 27.621 12.7983 27.7477 13.2117L27.751 13.225C27.7927 13.355 27.816 13.5067 27.816 13.6617C27.816 13.9817 27.716 14.2767 27.546 14.52L27.5493 14.515L20.5324 26.6933H25.6126H25.6609C26.4393 26.6933 27.111 27.15 27.4226 27.8117L27.4276 27.8233C27.6243 28.1433 27.7393 28.5317 27.7393 28.9467C27.7393 29.3333 27.6376 29.6967 27.461 30.0117L27.466 30H12.5537C12.5404 30 12.5254 30 12.5087 30C12.0537 30 11.642 29.815 11.3436 29.515C11.0453 29.2233 10.8603 28.8183 10.8603 28.3683C10.8603 28.36 10.8603 28.3517 10.8603 28.345V28.3467C10.8603 28.34 10.8603 28.3317 10.8603 28.3233C10.8603 27.8733 11.0453 27.4683 11.3436 27.1767C11.6403 26.8767 12.0537 26.6917 12.5087 26.6917H12.5554H16.7472L22.0691 17.4183L20.4507 14.52C20.284 14.2817 20.184 13.985 20.184 13.6667C20.184 13.51 20.2073 13.36 20.2523 13.2183L20.249 13.2283C20.379 12.8017 20.6507 12.4517 21.009 12.225L21.0157 12.22C21.2391 12.0717 21.5141 11.985 21.8091 11.985C21.9724 11.985 22.1308 12.0117 22.2774 12.0617L22.2674 12.0583C22.7008 12.1733 23.0558 12.45 23.2708 12.8167L23.2758 12.825L24.0008 14.115L24.7242 12.8217ZM16.0955 34.4333C15.8438 34.7933 15.4821 35.0633 15.0621 35.1967L15.0488 35.2C14.9138 35.245 14.7571 35.2717 14.5954 35.2717C14.3004 35.2717 14.0254 35.185 13.7937 35.035L13.7987 35.0383C13.4204 34.8217 13.142 34.465 13.0337 34.0417L13.032 34.03C12.9987 33.9 12.9787 33.75 12.9787 33.595C12.9787 33.2817 13.0587 32.9867 13.1971 32.73L13.192 32.74L14.4021 30.7233C14.6838 30.6217 15.0105 30.5617 15.3505 30.5617C16.2772 30.5617 17.1005 31.0017 17.6222 31.685L17.6272 31.6917L16.0955 34.4333ZM35.5313 26.6933H35.5763C36.0313 26.6933 36.443 26.8783 36.7414 27.1783C37.0397 27.47 37.2247 27.875 37.2247 28.325V28.3483V28.37C37.2247 28.82 37.0397 29.225 36.7414 29.5167C36.4447 29.8167 36.0313 30.0017 35.5763 30.0017C35.5613 30.0017 35.5446 30.0017 35.5296 30.0017H33.1929L34.8063 32.7433C34.9313 32.9717 35.0046 33.2433 35.0046 33.5333C35.0046 33.7117 34.9763 33.885 34.9246 34.0467L34.928 34.035C34.798 34.4617 34.5263 34.8117 34.1679 35.0383L34.1613 35.0433C33.9379 35.19 33.6629 35.2783 33.3696 35.2783C33.2062 35.2783 33.0495 35.2517 32.9029 35.2017L32.9129 35.205C32.4795 35.09 32.1245 34.8133 31.9095 34.4467L31.9045 34.4383L25.8559 23.875C25.4009 23.16 25.1309 22.2883 25.1309 21.355C25.1309 21.0483 25.1592 20.75 25.2159 20.4583L25.2109 20.4883C25.3626 19.6167 25.7976 18.865 26.4159 18.315L26.4193 18.3117L31.2578 26.6983L35.5313 26.6933Z" fill="url(#paint0_linear_29_131)"/>
<defs>
<linearGradient id="paint0_linear_29_131" x1="4" y1="5" x2="46.0746" y2="7.3164" gradientUnits="userSpaceOnUse">
<stop stop-color="#FCAB85"/>
<stop offset="1" stop-color="#FB99DB"/>
</linearGradient>
</defs>
</svg>
