<svg width="48" height="49" viewBox="0 0 48 49" fill="none" xmlns="http://www.w3.org/2000/svg">
<rect y="0.5" width="48" height="48" rx="8" fill="#FCAA88" fill-opacity="0.15"/>
<path d="M11.4938 16.9541C10.8617 16.3672 10.5474 15.6407 10.5474 14.7763C10.5474 13.9119 10.8634 13.1535 11.4938 12.5649C12.126 11.978 12.9397 11.6837 13.9366 11.6837C14.9335 11.6837 15.7153 11.978 16.3457 12.5649C16.9779 13.1518 17.2922 13.8901 17.2922 14.7763C17.2922 15.6626 16.9762 16.3672 16.3457 16.9541C15.7136 17.541 14.9117 17.8353 13.9366 17.8353C12.9615 17.8353 12.126 17.541 11.4938 16.9541ZM16.761 20.3208V38.3147H11.0769V20.3208H16.761Z" fill="url(#paint0_linear_29_118)"/>
<path d="M35.6826 22.0982C36.9216 23.4435 37.5403 25.29 37.5403 27.641V37.9967H32.142V28.3709C32.142 27.1853 31.8344 26.2637 31.2207 25.6079C30.6071 24.952 29.78 24.6224 28.7444 24.6224C27.7088 24.6224 26.8816 24.9503 26.268 25.6079C25.6543 26.2637 25.3467 27.1853 25.3467 28.3709V37.9967H19.9165V20.2702H25.3467V22.6212C25.8964 21.8375 26.6379 21.2187 27.5692 20.763C28.5006 20.3072 29.548 20.0802 30.713 20.0802C32.7876 20.0802 34.4452 20.7529 35.6826 22.0965V22.0982Z" fill="url(#paint1_linear_29_118)"/>
<defs>
<linearGradient id="paint0_linear_29_118" x1="10.5474" y1="11.6837" x2="17.6622" y2="11.7829" gradientUnits="userSpaceOnUse">
<stop stop-color="#FCAB85"/>
<stop offset="1" stop-color="#FB99DB"/>
</linearGradient>
<linearGradient id="paint1_linear_29_118" x1="19.9165" y1="20.0802" x2="38.4562" y2="21.0842" gradientUnits="userSpaceOnUse">
<stop stop-color="#FCAB85"/>
<stop offset="1" stop-color="#FB99DB"/>
</linearGradient>
</defs>
</svg>
