<svg width="25" height="25" viewBox="0 0 25 25" fill="none" xmlns="http://www.w3.org/2000/svg">
<circle cx="20.0818" cy="5.13056" r="4.57143" transform="rotate(-179.546 20.0818 5.13056)" fill="#F2FE4F"/>
<circle cx="5.10748" cy="19.8695" r="4.57143" transform="rotate(-179.546 5.10748 19.8695)" fill="white"/>
<path fill-rule="evenodd" clip-rule="evenodd" d="M15.399 20.229C15.5237 22.6253 17.4967 24.5392 19.928 24.5584C22.4526 24.5784 24.5155 22.548 24.5355 20.0233C24.554 17.6808 22.8073 15.7359 20.5384 15.4515L20.5717 15.4205C20.5717 15.4205 18.0197 15.0269 16.0117 13.9558C13.5018 12.6169 12.5038 11.0161 11.1977 8.48897C10.0296 6.22861 9.79861 4.76349 9.79861 4.76349L9.79033 4.77272C9.66643 2.37561 7.69312 0.460917 5.26126 0.441665C2.73661 0.421678 0.673776 2.45211 0.653789 4.97676C0.633802 7.50141 2.66423 9.56425 5.18888 9.58423C5.28763 9.58502 5.38567 9.58266 5.4829 9.57726L5.47458 9.58655C5.47458 9.58655 6.56143 9.4785 8.61055 10.4685C11.24 11.739 12.7021 13.0373 13.9982 15.6542C15.0569 17.7917 15.3906 20.2368 15.3906 20.2368L15.399 20.229Z" fill="white"/>
</svg>
