<svg width="136" height="40" viewBox="0 0 136 40" fill="none" xmlns="http://www.w3.org/2000/svg">
<rect x="1" y="0.5" width="134" height="39" rx="7.5" fill="black"/>
<rect x="1" y="0.5" width="134" height="39" rx="7.5" stroke="#A6A6A6"/>
<path d="M68.637 21.752C66.285 21.752 64.368 23.54 64.368 26.005C64.368 28.454 66.285 30.258 68.637 30.258C70.989 30.258 72.906 28.454 72.906 26.005C72.906 23.54 70.989 21.752 68.637 21.752ZM68.637 28.583C67.348 28.583 66.236 27.52 66.236 26.005C66.236 24.474 67.348 23.427 68.637 23.427C69.926 23.427 71.037 24.474 71.037 26.005C71.037 27.519 69.926 28.583 68.637 28.583ZM59.323 21.752C56.971 21.752 55.054 23.54 55.054 26.005C55.054 28.454 56.971 30.258 59.323 30.258C61.675 30.258 63.592 28.454 63.592 26.005C63.593 23.54 61.675 21.752 59.323 21.752ZM59.323 28.583C58.034 28.583 56.923 27.52 56.923 26.005C56.923 24.474 58.035 23.427 59.323 23.427C60.612 23.427 61.723 24.474 61.723 26.005C61.724 27.519 60.612 28.583 59.323 28.583ZM48.245 24.861H52.563C52.434 25.876 52.096 26.617 51.58 27.133C50.952 27.761 49.969 28.454 48.245 28.454C45.587 28.454 43.509 26.311 43.509 23.653C43.509 20.995 45.587 18.852 48.245 18.852C49.679 18.852 50.726 19.416 51.499 20.141L52.772 18.868C51.693 17.837 50.259 17.047 48.245 17.047C44.604 17.047 41.543 20.011 41.543 23.652C41.543 27.293 44.604 30.257 48.245 30.257C50.21 30.257 51.693 29.613 52.853 28.404C54.045 27.212 54.416 25.536 54.416 24.183C54.416 23.764 54.384 23.377 54.319 23.055H48.245V24.861ZM93.553 24.458C93.199 23.507 92.119 21.751 89.912 21.751C87.721 21.751 85.901 23.475 85.901 26.004C85.901 28.388 87.705 30.257 90.122 30.257C92.071 30.257 93.199 29.065 93.666 28.372L92.216 27.405C91.733 28.114 91.072 28.581 90.122 28.581C89.171 28.581 88.495 28.146 88.06 27.292L93.747 24.94L93.553 24.458ZM87.753 25.876C87.705 24.233 89.026 23.395 89.976 23.395C90.717 23.395 91.345 23.765 91.555 24.297L87.753 25.876ZM83.129 30H84.998V17.499H83.129V30ZM80.068 22.702H80.004C79.585 22.203 78.78 21.751 77.765 21.751C75.638 21.751 73.689 23.62 73.689 26.02C73.689 28.404 75.638 30.257 77.765 30.257C78.78 30.257 79.585 29.806 80.004 29.29H80.068V29.902C80.068 31.529 79.198 32.399 77.796 32.399C76.652 32.399 75.943 31.577 75.653 30.885L74.026 31.562C74.493 32.69 75.734 34.075 77.796 34.075C79.987 34.075 81.84 32.786 81.84 29.645V22.009H80.068V22.702ZM77.926 28.583C76.637 28.583 75.558 27.504 75.558 26.021C75.558 24.523 76.637 23.427 77.926 23.427C79.199 23.427 80.197 24.522 80.197 26.021C80.197 27.503 79.199 28.583 77.926 28.583ZM102.307 17.499H97.836V30H99.701V25.264H102.306C104.374 25.264 106.407 23.767 106.407 21.382C106.407 18.997 104.375 17.499 102.307 17.499ZM102.355 23.524H99.701V19.239H102.355C103.75 19.239 104.542 20.394 104.542 21.382C104.542 22.35 103.75 23.524 102.355 23.524ZM113.887 21.729C112.536 21.729 111.137 22.324 110.558 23.643L112.215 24.335C112.569 23.643 113.228 23.418 113.92 23.418C114.885 23.418 115.866 23.997 115.882 25.026V25.155C115.544 24.962 114.82 24.672 113.936 24.672C112.151 24.672 110.333 25.653 110.333 27.487C110.333 29.16 111.797 30.237 113.437 30.237C114.692 30.237 115.383 29.674 115.817 29.015H115.881V29.98H117.682V25.187C117.682 22.967 116.026 21.729 113.887 21.729ZM113.661 28.58C113.05 28.58 112.197 28.274 112.197 27.519C112.197 26.554 113.259 26.184 114.175 26.184C114.995 26.184 115.381 26.361 115.88 26.602C115.736 27.76 114.739 28.58 113.661 28.58ZM124.244 22.002L122.105 27.422H122.041L119.822 22.002H117.812L121.141 29.577L119.243 33.791H121.189L126.32 22.002H124.244ZM107.437 30H109.303V17.499H107.437V30Z" fill="white"/>
<path d="M47.876 9.79097H44.968V10.512H47.147C47.088 11.098 46.853 11.559 46.46 11.894C46.066 12.229 45.563 12.397 44.968 12.397C44.314 12.397 43.761 12.171 43.309 11.718C42.865 11.257 42.638 10.688 42.638 9.99997C42.638 9.31297 42.865 8.74297 43.309 8.28197C43.761 7.82997 44.314 7.60397 44.968 7.60397C45.303 7.60397 45.622 7.66197 45.915 7.78797C46.208 7.91397 46.443 8.08997 46.627 8.31597L47.18 7.76297C46.929 7.47797 46.61 7.25997 46.217 7.10097C45.823 6.94197 45.412 6.86597 44.968 6.86597C44.096 6.86597 43.359 7.16797 42.756 7.77097C42.152 8.37497 41.851 9.11997 41.851 9.99997C41.851 10.88 42.152 11.626 42.756 12.229C43.359 12.833 44.096 13.134 44.968 13.134C45.881 13.134 46.61 12.841 47.172 12.246C47.666 11.752 47.918 11.081 47.918 10.243C47.918 10.101 47.901 9.94997 47.876 9.79097Z" fill="white"/>
<path d="M49.024 6.99997V13H52.527V12.263H49.795V10.361H52.258V9.63997H49.795V7.73797H52.527V6.99997H49.024Z" fill="white"/>
<path d="M57.453 7.73797V6.99997H53.33V7.73797H55.006V13H55.777V7.73797H57.453Z" fill="white"/>
<path d="M61.2079 6.99997H60.4369V13H61.2079V6.99997Z" fill="white"/>
<path d="M66.3029 7.73797V6.99997H62.1799V7.73797H63.8559V13H64.6269V7.73797H66.3029Z" fill="white"/>
<path d="M74.105 7.77997C73.51 7.16797 72.781 6.86597 71.909 6.86597C71.038 6.86597 70.308 7.16797 69.713 7.77097C69.118 8.36597 68.825 9.11197 68.825 9.99997C68.825 10.889 69.118 11.634 69.713 12.229C70.308 12.833 71.038 13.134 71.909 13.134C72.772 13.134 73.51 12.833 74.105 12.229C74.7 11.634 74.993 10.889 74.993 9.99997C74.993 9.11997 74.7 8.37497 74.105 7.77997ZM70.267 8.28197C70.711 7.82997 71.255 7.60397 71.909 7.60397C72.563 7.60397 73.107 7.82997 73.543 8.28197C73.987 8.72697 74.205 9.30497 74.205 9.99997C74.205 10.696 73.987 11.274 73.543 11.718C73.107 12.171 72.563 12.397 71.909 12.397C71.255 12.397 70.711 12.171 70.267 11.718C69.831 11.266 69.613 10.696 69.613 9.99997C69.613 9.30497 69.831 8.73497 70.267 8.28197Z" fill="white"/>
<path d="M76.845 9.26297L76.812 8.10597H76.845L79.896 13H80.7V6.99997H79.929V10.512L79.963 11.668H79.929L77.013 6.99997H76.075V13H76.845V9.26297Z" fill="white"/>
<path d="M21.2173 19.4243L10.5703 30.7243C10.5713 30.7263 10.5713 30.7283 10.5723 30.7303C10.8983 31.9583 12.0193 32.8613 13.3493 32.8613C13.8813 32.8613 14.3803 32.7173 14.8083 32.4653L14.8423 32.4453L26.8263 25.5303L21.2173 19.4243Z" fill="#EB4335"/>
<path d="M31.9896 17.5004L31.9796 17.4934L26.8056 14.4934L20.9766 19.6804L26.8256 25.5284L31.9726 22.5594C32.8746 22.0724 33.4866 21.1214 33.4866 20.0244C33.4866 18.9354 32.8826 17.9884 31.9896 17.5004Z" fill="#FABC13"/>
<path d="M10.5707 9.27734C10.5067 9.51334 10.4727 9.76034 10.4727 10.0173V29.9843C10.4727 30.2413 10.5053 30.4893 10.5703 30.7243L21.5837 19.7133L10.5707 9.27734Z" fill="#547DBF"/>
<path d="M21.2953 20.0004L26.8063 14.4914L14.8353 7.55138C14.4003 7.29038 13.8933 7.14038 13.3493 7.14038C12.0193 7.14038 10.8973 8.04538 10.5703 9.27438L10.5707 9.27734L21.2953 20.0004Z" fill="#30A851"/>
</svg>
