<svg width="121" height="40" viewBox="0 0 121 40" fill="none" xmlns="http://www.w3.org/2000/svg">
<rect x="1" y="0.5" width="119" height="39" rx="7.5" fill="black"/>
<rect x="1" y="0.5" width="119" height="39" rx="7.5" stroke="#A6A6A6"/>
<path d="M25.27 20.3007C25.2807 19.4661 25.5024 18.6477 25.9145 17.9218C26.3265 17.1958 26.9154 16.5859 27.6265 16.1487C27.1748 15.5035 26.5788 14.9726 25.886 14.598C25.1932 14.2235 24.4226 14.0156 23.6354 13.991C21.9561 13.8147 20.3282 14.9958 19.4725 14.9958C18.6002 14.9958 17.2827 14.0085 15.864 14.0377C14.9463 14.0673 14.0519 14.3342 13.2681 14.8123C12.4842 15.2903 11.8375 15.9633 11.391 16.7656C9.45705 20.114 10.8996 25.035 12.7522 27.7416C13.6791 29.067 14.7624 30.5474 16.1799 30.4949C17.5669 30.4374 18.085 29.6105 19.7593 29.6105C21.418 29.6105 21.9041 30.4949 23.3503 30.4616C24.8387 30.4374 25.7764 29.1303 26.6708 27.7924C27.3368 26.8481 27.8492 25.8043 28.1892 24.6999C27.3245 24.3342 26.5866 23.722 26.0675 22.9397C25.5483 22.1574 25.271 21.2396 25.27 20.3007Z" fill="white"/>
<path d="M22.5383 12.211C23.3499 11.2367 23.7497 9.98457 23.6529 8.72034C22.413 8.85056 21.2678 9.44312 20.4453 10.3799C20.0431 10.8376 19.7351 11.37 19.5389 11.9468C19.3427 12.5236 19.262 13.1334 19.3016 13.7413C19.9217 13.7477 20.5352 13.6133 21.0959 13.3482C21.6565 13.0831 22.1497 12.6943 22.5383 12.211Z" fill="white"/>
<path d="M42.8025 27.1397H38.0691L36.9324 30.4961H34.9275L39.4109 18.0781H41.4939L45.9773 30.4961H43.9382L42.8025 27.1397ZM38.5593 25.5908H42.3113L40.4617 20.1436H40.41L38.5593 25.5908Z" fill="white"/>
<path d="M55.6599 25.9697C55.6599 28.7832 54.1541 30.5908 51.8816 30.5908C51.3059 30.6209 50.7334 30.4883 50.2296 30.2082C49.7259 29.9281 49.3111 29.5117 49.033 29.0068H48.99V33.4912H47.1316V21.4424H48.9304V22.9483H48.9646C49.2556 22.4458 49.6773 22.0316 50.1849 21.7498C50.6925 21.4679 51.2671 21.3289 51.8474 21.3477C54.1452 21.3477 55.6599 23.1641 55.6599 25.9697ZM53.7498 25.9697C53.7498 24.1367 52.8025 22.9317 51.3572 22.9317C49.9373 22.9317 48.9822 24.1621 48.9822 25.9697C48.9822 27.794 49.9373 29.0156 51.3572 29.0156C52.8025 29.0156 53.7498 27.8194 53.7498 25.9697Z" fill="white"/>
<path d="M65.6248 25.9697C65.6248 28.7832 64.1189 30.5908 61.8464 30.5908C61.2708 30.6209 60.6983 30.4883 60.1945 30.2082C59.6907 29.9281 59.276 29.5117 58.9978 29.0068H58.9548V33.4912H57.0964V21.4424H58.8952V22.9483H58.9294C59.2204 22.4458 59.6421 22.0316 60.1497 21.7498C60.6574 21.4679 61.2319 21.329 61.8122 21.3477C64.1101 21.3477 65.6248 23.1641 65.6248 25.9697ZM63.7146 25.9697C63.7146 24.1367 62.7673 22.9317 61.322 22.9317C59.9021 22.9317 58.947 24.1621 58.947 25.9697C58.947 27.794 59.9021 29.0156 61.322 29.0156C62.7673 29.0156 63.7146 27.8194 63.7146 25.9697Z" fill="white"/>
<path d="M72.2107 27.0361C72.3484 28.2676 73.5447 29.0761 75.1795 29.0761C76.7459 29.0761 77.8728 28.2676 77.8728 27.1572C77.8728 26.1933 77.1931 25.6162 75.5837 25.2207L73.9744 24.833C71.6941 24.2822 70.6355 23.2158 70.6355 21.4853C70.6355 19.3427 72.5027 17.8711 75.1541 17.8711C77.7781 17.8711 79.5769 19.3427 79.6375 21.4853H77.7615C77.6492 20.2461 76.6247 19.498 75.1277 19.498C73.6306 19.498 72.6062 20.2549 72.6062 21.3564C72.6062 22.2343 73.2605 22.7509 74.8611 23.1464L76.2292 23.4824C78.7771 24.0849 79.8357 25.1084 79.8357 26.9247C79.8357 29.248 77.9851 30.7031 75.0417 30.7031C72.2878 30.7031 70.4284 29.2822 70.3083 27.0361L72.2107 27.0361Z" fill="white"/>
<path d="M83.8464 19.2998V21.4424H85.5681V22.9141H83.8464V27.9053C83.8464 28.6807 84.1912 29.042 84.948 29.042C85.1524 29.0384 85.3564 29.0241 85.5593 28.999V30.4619C85.2191 30.5255 84.8732 30.5543 84.5271 30.5478C82.6941 30.5478 81.9792 29.8594 81.9792 28.1035V22.9141H80.6628V21.4424H81.9792V19.2998H83.8464Z" fill="white"/>
<path d="M86.5652 25.9697C86.5652 23.1211 88.243 21.3311 90.8592 21.3311C93.4842 21.3311 95.1541 23.1211 95.1541 25.9697C95.1541 28.8262 93.493 30.6084 90.8592 30.6084C88.2263 30.6084 86.5652 28.8262 86.5652 25.9697ZM93.2605 25.9697C93.2605 24.0156 92.365 22.8623 90.8592 22.8623C89.3533 22.8623 88.4588 24.0244 88.4588 25.9697C88.4588 27.9317 89.3533 29.0762 90.8592 29.0762C92.365 29.0762 93.2605 27.9317 93.2605 25.9697Z" fill="white"/>
<path d="M96.6863 21.4424H98.4587V22.9834H98.5017C98.6217 22.5021 98.9036 22.0768 99.3002 21.7789C99.6968 21.481 100.184 21.3287 100.679 21.3477C100.894 21.3469 101.107 21.3702 101.316 21.417V23.1553C101.046 23.0727 100.764 23.0347 100.481 23.043C100.211 23.032 99.9421 23.0796 99.6922 23.1825C99.4424 23.2854 99.2178 23.4411 99.0338 23.639C98.8498 23.8369 98.7108 24.0723 98.6264 24.3289C98.542 24.5856 98.5141 24.8575 98.5447 25.126V30.4961H96.6863L96.6863 21.4424Z" fill="white"/>
<path d="M109.885 27.8369C109.635 29.4805 108.034 30.6084 105.986 30.6084C103.352 30.6084 101.718 28.8438 101.718 26.0127C101.718 23.1729 103.361 21.3311 105.908 21.3311C108.413 21.3311 109.988 23.0518 109.988 25.7969V26.4336H103.594V26.5459C103.564 26.8791 103.606 27.2148 103.716 27.5306C103.826 27.8464 104.002 28.1352 104.233 28.3778C104.463 28.6203 104.742 28.8111 105.052 28.9374C105.362 29.0637 105.695 29.1227 106.029 29.1104C106.468 29.1515 106.909 29.0498 107.286 28.8203C107.662 28.5909 107.955 28.246 108.12 27.8369L109.885 27.8369ZM103.602 25.1348H108.129C108.145 24.8352 108.1 24.5354 107.995 24.2542C107.891 23.9729 107.729 23.7164 107.52 23.5006C107.312 23.2849 107.061 23.1145 106.784 23.0003C106.506 22.8861 106.208 22.8305 105.908 22.8369C105.605 22.8351 105.305 22.8933 105.025 23.008C104.745 23.1227 104.491 23.2918 104.276 23.5054C104.062 23.7191 103.892 23.9731 103.776 24.2527C103.661 24.5324 103.602 24.8321 103.602 25.1348Z" fill="white"/>
<path d="M38.3264 8.73101C38.716 8.70305 39.107 8.76191 39.4711 8.90334C39.8352 9.04478 40.1634 9.26526 40.432 9.54888C40.7006 9.83251 40.9029 10.1722 41.0243 10.5435C41.1457 10.9147 41.1832 11.3083 41.134 11.6959C41.134 13.6021 40.1038 14.6979 38.3264 14.6979H36.1711V8.73101H38.3264ZM37.0979 13.854H38.2229C38.5013 13.8707 38.7799 13.825 39.0385 13.7204C39.297 13.6158 39.529 13.4548 39.7174 13.2493C39.9059 13.0437 40.0462 12.7987 40.1281 12.5321C40.2099 12.2655 40.2313 11.9839 40.1907 11.708C40.2284 11.4332 40.2048 11.1534 40.1217 10.8887C40.0386 10.6241 39.898 10.3811 39.7099 10.1771C39.5218 9.97321 39.291 9.81341 39.0339 9.70917C38.7768 9.60493 38.4999 9.55885 38.2229 9.57422H37.0979V13.854Z" fill="white"/>
<path d="M42.1809 12.4444C42.1526 12.1484 42.1865 11.8499 42.2803 11.5678C42.3741 11.2857 42.5259 11.0264 42.7258 10.8064C42.9258 10.5864 43.1695 10.4107 43.4413 10.2904C43.7132 10.1701 44.0072 10.108 44.3044 10.108C44.6017 10.108 44.8957 10.1701 45.1675 10.2904C45.4394 10.4107 45.6831 10.5864 45.8831 10.8064C46.083 11.0264 46.2348 11.2857 46.3286 11.5678C46.4224 11.8499 46.4563 12.1484 46.428 12.4444C46.4568 12.7406 46.4234 13.0396 46.3298 13.3221C46.2362 13.6046 46.0845 13.8644 45.8845 14.0848C45.6845 14.3053 45.4406 14.4814 45.1685 14.6019C44.8964 14.7225 44.6021 14.7847 44.3044 14.7847C44.0068 14.7847 43.7125 14.7225 43.4404 14.6019C43.1682 14.4814 42.9243 14.3053 42.7243 14.0848C42.5244 13.8644 42.3727 13.6046 42.2791 13.3221C42.1855 13.0396 42.1521 12.7406 42.1809 12.4444ZM45.5139 12.4444C45.5139 11.4683 45.0754 10.8975 44.3059 10.8975C43.5334 10.8975 43.0989 11.4683 43.0989 12.4444C43.0989 13.4283 43.5335 13.9947 44.3059 13.9947C45.0754 13.9946 45.5139 13.4243 45.5139 12.4444Z" fill="white"/>
<path d="M52.0735 14.6978H51.1516L50.221 11.3814H50.1506L49.2239 14.6978H48.3108L47.0696 10.1948H47.971L48.7776 13.6308H48.844L49.7698 10.1948H50.6223L51.5481 13.6308H51.6184L52.4211 10.1948H53.3098L52.0735 14.6978Z" fill="white"/>
<path d="M54.3538 10.1948H55.2092V10.9102H55.2756C55.3883 10.6532 55.5783 10.4379 55.8192 10.2941C56.06 10.1503 56.3398 10.0852 56.6194 10.1079C56.8385 10.0914 57.0585 10.1245 57.2631 10.2046C57.4677 10.2847 57.6516 10.4098 57.8013 10.5706C57.951 10.7315 58.0626 10.9239 58.1278 11.1337C58.193 11.3436 58.2101 11.5654 58.178 11.7827V14.6977H57.2893V12.0059C57.2893 11.2822 56.9749 10.9224 56.3176 10.9224C56.1689 10.9154 56.0204 10.9408 55.8823 10.9966C55.7443 11.0524 55.6199 11.1374 55.5178 11.2458C55.4157 11.3542 55.3382 11.4834 55.2906 11.6245C55.2431 11.7657 55.2267 11.9154 55.2424 12.0635V14.6978H54.3538L54.3538 10.1948Z" fill="white"/>
<path d="M59.594 8.43701H60.4827V14.6978H59.594V8.43701Z" fill="white"/>
<path d="M61.718 12.4444C61.6897 12.1484 61.7236 11.8498 61.8175 11.5677C61.9113 11.2857 62.0631 11.0263 62.2631 10.8063C62.463 10.5863 62.7068 10.4106 62.9786 10.2903C63.2505 10.17 63.5445 10.1079 63.8418 10.1079C64.1391 10.1079 64.4331 10.17 64.705 10.2903C64.9768 10.4106 65.2206 10.5863 65.4205 10.8063C65.6205 11.0263 65.7723 11.2857 65.8661 11.5677C65.96 11.8498 65.9939 12.1484 65.9656 12.4444C65.9944 12.7406 65.9609 13.0396 65.8673 13.3221C65.7737 13.6046 65.622 13.8644 65.422 14.0848C65.2219 14.3052 64.978 14.4814 64.7059 14.6019C64.4338 14.7224 64.1394 14.7847 63.8418 14.7847C63.5442 14.7847 63.2498 14.7224 62.9777 14.6019C62.7056 14.4814 62.4616 14.3052 62.2616 14.0848C62.0616 13.8644 61.9099 13.6046 61.8163 13.3221C61.7227 13.0396 61.6892 12.7406 61.718 12.4444ZM65.051 12.4444C65.051 11.4683 64.6125 10.8975 63.843 10.8975C63.0706 10.8975 62.636 11.4683 62.636 12.4444C62.636 13.4283 63.0706 13.9947 63.843 13.9947C64.6125 13.9946 65.051 13.4243 65.051 12.4444Z" fill="white"/>
<path d="M66.9011 13.4243C66.9011 12.6138 67.5046 12.1465 68.5759 12.0801L69.7957 12.0098V11.6211C69.7957 11.1455 69.4812 10.877 68.8738 10.877C68.3777 10.877 68.0339 11.0591 67.9353 11.3775H67.075C67.1658 10.604 67.8933 10.1079 68.9148 10.1079C70.0437 10.1079 70.6804 10.6699 70.6804 11.6211V14.6978H69.825V14.065H69.7546C69.6119 14.292 69.4115 14.477 69.1739 14.6012C68.9363 14.7254 68.6699 14.7843 68.4021 14.772C68.2131 14.7916 68.022 14.7715 67.8413 14.7128C67.6605 14.6541 67.494 14.5581 67.3526 14.4312C67.2112 14.3042 67.098 14.149 67.0202 13.9756C66.9424 13.8022 66.9019 13.6144 66.9011 13.4243ZM69.7957 13.0396V12.6631L68.696 12.7334C68.0759 12.7749 67.7947 12.9859 67.7947 13.3828C67.7947 13.7881 68.1462 14.0239 68.6297 14.0239C68.7713 14.0383 68.9144 14.024 69.0504 13.9819C69.1864 13.9398 69.3126 13.8708 69.4213 13.7789C69.5301 13.6871 69.6193 13.5743 69.6836 13.4473C69.7479 13.3203 69.786 13.1816 69.7957 13.0396Z" fill="white"/>
<path d="M71.8484 12.4444C71.8484 11.0215 72.5798 10.1201 73.7175 10.1201C73.9989 10.1072 74.2782 10.1746 74.5228 10.3145C74.7673 10.4544 74.9669 10.661 75.0984 10.9101H75.1648V8.43701H76.0535V14.6978H75.2019V13.9863H75.1316C74.99 14.2338 74.7834 14.4378 74.5341 14.5763C74.2849 14.7148 74.0025 14.7825 73.7175 14.772C72.572 14.772 71.8484 13.8706 71.8484 12.4444ZM72.7664 12.4444C72.7664 13.3994 73.2166 13.9741 73.9695 13.9741C74.7185 13.9741 75.1814 13.3911 75.1814 12.4483C75.1814 11.5098 74.7137 10.9185 73.9695 10.9185C73.2214 10.9185 72.7664 11.4971 72.7664 12.4444Z" fill="white"/>
<path d="M79.7302 12.4444C79.7019 12.1484 79.7358 11.8499 79.8296 11.5678C79.9234 11.2857 80.0752 11.0264 80.2751 10.8064C80.4751 10.5864 80.7188 10.4107 80.9906 10.2904C81.2625 10.1701 81.5565 10.108 81.8538 10.108C82.151 10.108 82.445 10.1701 82.7169 10.2904C82.9887 10.4107 83.2324 10.5864 83.4324 10.8064C83.6323 11.0264 83.7841 11.2857 83.8779 11.5678C83.9717 11.8499 84.0056 12.1484 83.9773 12.4444C84.0061 12.7406 83.9727 13.0396 83.8791 13.3221C83.7855 13.6046 83.6338 13.8644 83.4338 14.0848C83.2339 14.3053 82.99 14.4814 82.7178 14.6019C82.4457 14.7225 82.1514 14.7847 81.8538 14.7847C81.5561 14.7847 81.2618 14.7225 80.9897 14.6019C80.7176 14.4814 80.4737 14.3053 80.2737 14.0848C80.0737 13.8644 79.922 13.6046 79.8284 13.3221C79.7348 13.0396 79.7014 12.7406 79.7302 12.4444ZM83.0632 12.4444C83.0632 11.4683 82.6247 10.8975 81.8552 10.8975C81.0828 10.8975 80.6482 11.4683 80.6482 12.4444C80.6482 13.4283 81.0828 13.9947 81.8552 13.9947C82.6248 13.9946 83.0632 13.4243 83.0632 12.4444Z" fill="white"/>
<path d="M85.1697 10.1948H86.0251V10.9102H86.0916C86.2042 10.6532 86.3942 10.4379 86.6351 10.2941C86.876 10.1503 87.1557 10.0852 87.4353 10.1079C87.6544 10.0914 87.8744 10.1245 88.079 10.2046C88.2836 10.2847 88.4676 10.4098 88.6172 10.5706C88.7669 10.7315 88.8785 10.9239 88.9437 11.1337C89.0089 11.3436 89.0261 11.5654 88.9939 11.7827V14.6977H88.1052V12.0059C88.1052 11.2822 87.7908 10.9224 87.1336 10.9224C86.9848 10.9154 86.8363 10.9408 86.6982 10.9966C86.5602 11.0524 86.4358 11.1374 86.3337 11.2458C86.2316 11.3542 86.1541 11.4834 86.1066 11.6245C86.059 11.7657 86.0426 11.9154 86.0583 12.0635V14.6978H85.1697V10.1948Z" fill="white"/>
<path d="M94.0154 9.07374V10.2153H94.991V10.9639H94.0154V13.2793C94.0154 13.751 94.2097 13.9575 94.6521 13.9575C94.7654 13.9572 94.8785 13.9503 94.991 13.937V14.6773C94.8314 14.7058 94.6697 14.721 94.5076 14.7227C93.5193 14.7227 93.1257 14.375 93.1257 13.5068V10.9638H92.4109V10.2153H93.1257V9.07374H94.0154Z" fill="white"/>
<path d="M96.2048 8.43701H97.0857V10.9185H97.156C97.2741 10.6591 97.4694 10.4425 97.7151 10.2982C97.9608 10.1539 98.245 10.0888 98.529 10.1118C98.747 10.1 98.9649 10.1364 99.1671 10.2184C99.3694 10.3004 99.5511 10.4261 99.6992 10.5864C99.8473 10.7468 99.9583 10.9378 100.024 11.146C100.09 11.3541 100.109 11.5742 100.08 11.7905V14.6978H99.1902V12.0098C99.1902 11.2905 98.8552 10.9263 98.2273 10.9263C98.0746 10.9137 97.921 10.9347 97.7772 10.9878C97.6334 11.0408 97.503 11.1247 97.395 11.2334C97.287 11.3421 97.204 11.4732 97.152 11.6173C97.0999 11.7614 97.08 11.9152 97.0936 12.0679V14.6977H96.2049L96.2048 8.43701Z" fill="white"/>
<path d="M105.261 13.4819C105.141 13.8935 104.879 14.2495 104.522 14.4876C104.166 14.7258 103.737 14.8309 103.31 14.7847C103.014 14.7925 102.719 14.7357 102.446 14.6182C102.174 14.5006 101.93 14.3252 101.732 14.1041C101.534 13.8829 101.387 13.6214 101.3 13.3376C101.214 13.0537 101.19 12.7544 101.23 12.4605C101.191 12.1656 101.215 11.8656 101.302 11.581C101.388 11.2963 101.535 11.0335 101.732 10.8105C101.928 10.5874 102.171 10.4092 102.443 10.288C102.714 10.1668 103.009 10.1054 103.306 10.1079C104.559 10.1079 105.315 10.9639 105.315 12.3779V12.688H102.135V12.7378C102.122 12.9031 102.142 13.0694 102.196 13.2261C102.251 13.3829 102.337 13.5266 102.45 13.6481C102.563 13.7695 102.7 13.866 102.852 13.9314C103.005 13.9968 103.169 14.0297 103.335 14.0278C103.547 14.0533 103.763 14.0151 103.953 13.9178C104.144 13.8206 104.302 13.6689 104.406 13.4819L105.261 13.4819ZM102.135 12.0308H104.41C104.421 11.8796 104.401 11.7278 104.35 11.5851C104.299 11.4424 104.218 11.3119 104.114 11.2021C104.01 11.0922 103.883 11.0054 103.743 10.9472C103.604 10.8891 103.453 10.8608 103.301 10.8643C103.148 10.8623 102.995 10.8912 102.853 10.9491C102.711 11.0071 102.581 11.0929 102.473 11.2017C102.364 11.3104 102.278 11.4397 102.22 11.5821C102.162 11.7245 102.133 11.8771 102.135 12.0308Z" fill="white"/>
</svg>
